<svg xmlns="http://www.w3.org/2000/svg" xmlns:xlink="http://www.w3.org/1999/xlink" height="24" viewBox="0 0 192 192" width="24"><defs><path id="a" d="M0 0h192v192H0z"/></defs><clipPath id="b"><use overflow="visible" xlink:href="#a"/></clipPath><g clip-path="url(#b)"><path d="M121.11 60.87l5.89.11 16.01-16.01.78-6.78C131.07 26.87 114.33 19.98 96 19.98c-33.19 0-61.18 22.57-69.48 53.17 1.75-1.21 5.48-.31 5.48-.31l32-5.26s1.66-2.72 2.47-2.55C73.79 57.02 84.32 51.98 96 51.98c9.5 0 18.24 3.34 25.11 8.89z" fill="#EA4335"/><path d="M165.5 73.19c-3.71-13.72-11.39-25.82-21.72-35.01L121.1 60.86c9.08 7.34 14.9 18.56 14.9 31.12v4c11.03 0 20 8.97 20 20s-8.97 20-20 20H96L92 140v24l4 3.98h40c28.67 0 52-23.33 52-52 0-17.73-8.92-33.4-22.5-42.79z" fill="#4285F4"/><path d="M56 167.98h39.97v-32H56c-2.94 0-5.72-.65-8.24-1.8L42 135.95l-16.02 16.02-1.4 5.41c8.73 6.64 19.62 10.6 31.42 10.6z" fill="#34A853"/><path d="M56 63.98c-28.67 0-52 23.33-52 52 0 16.88 8.09 31.91 20.6 41.41l23.19-23.19C40.85 131.06 36 124.08 36 115.98c0-11.03 8.97-20 20-20 8.1 0 15.08 4.85 18.22 11.79l23.19-23.19c-9.5-12.51-24.53-20.6-41.41-20.6z" fill="#FBBC05"/></g></svg>